<svg viewBox="0 0 128 128" xmlns="http://www.w3.org/2000/svg" id="technology">
  <defs>
  <style>
    @media(prefers-color-scheme:dark){:root{--color-logo-shape:#000;--color-logo-base:#fff}}
    body[data-color-scheme="dark"]{--color-logo-shape:#000;--color-logo-base:#fff}
  </style>
  <path id="d" d="M6,47l58-47,58,47-58,45z" />
  <path id="s" d="M6,47v12l58,45v-12z" />
  <path id="h" d="m61.7,22c-3-.1-6.6,2-6.2,5.6l2,12-13.3-2.5c-6-1.2-9.8,7.3-3.8,8.5l13.3,2.4-11.4,9.5c-5,4.3,1,9.9,6,5.7l11.4-9.5,1.9,12c.9,5.3,10.7,2.6,9.8-2.8l-1.9-11.9,13.3,2.4c5.9,1.2,9.7-7.3,3.8-8.4l-13.4-2.5,11.4-9.5c5.1-4.2-1-9.8-6-5.7l-11.4,9.5-1.9-12c-.3-1.9-1.8-2.8-3.6-2.8zm2.2,11.9c-.1.2,0,.3.4.3-.9.5-1.3.9-1,1.3,1,.8,2.9-.1,4,2.8.1.4.4-.5.5-1.6.2.2.4.6.3,1.2,0,0,.6-1.9.6-1.9,1.3,2.1-.8,3.2-1.6,4.5-2.3,3.8,2,6,2.7,5.9,1.5.5.2,1.3,1.6,1.8.2.2-.3.6-1.6,1,.1.3.3.4.4.3,2.3.6.3,1.2-.5,1.3-.4-.2-.7-.5-.9-1-.8-.7-1.8-1.5-3-2.2-.7.2-1.4.8-1.9,1.8.8.5,1.5,1.1,2,1.7,1.1.1,1.4.3,1,.7-.5.3-.9.6-1.4.8-.3.1-1-.5-2.2-1.5.6.7,1.1,1.5,1.5,2.4,2,0,.3,1.3.1,1.4-.5.4-.9.3-1.3-.1-.9-1.9-4.5-3.4-5.2-3.6.3.2.6,1.2.5,1.7-.1-.7-.5-1.3-.9-1.9-.3-.6-2.4-4,3.8-6.8,1.1-.4-3.2-.8.8-3.1,0-.6.9-1.4,2.8-2.3.6-1.8-1.5-2-2.5-2.8-.4-.3-.5-1.2.8-1.9,0,0,.1-.2.2-.2zm3.6,13.1c.4.5.8.8.9,1,.3-.3-.1-.7-.9-1z" />
  </defs>
  <use href="#s" fill="#9ee0ff"/>
  <use href="#s" fill="#6bd0ff" y="12"/>
  <use href="#s" fill="#38c0ff" y="24"/>
  <g transform="matrix(-1 0 0 1 128 0)">
    <use href="#s" fill="#f29eff"/>
    <use href="#s" fill="#eb6bff" y="12"/>
    <use href="#s" fill="#e438ff" y="24"/>
  </g>
  <use href="#d" style="fill:var(--color-logo-base,#000)"/>
  <use href="#h" style="fill:var(--color-logo-shape,#fff)"/>
</svg>
